<?xml version="1.0" encoding="utf-8"?>
<!-- Generator: Adobe Illustrator 27.7.0, SVG Export Plug-In . SVG Version: 6.00 Build 0)  -->
<svg version="1.1" id="LOGO" xmlns="http://www.w3.org/2000/svg" xmlns:xlink="http://www.w3.org/1999/xlink" x="0px" y="0px"
	 viewBox="0 0 283.46 283.46" style="enable-background:new 0 0 283.46 283.46;" xml:space="preserve">
<style type="text/css">
	.st0{fill:url(#SVGID_1_);}
	.st1{fill:url(#SVGID_00000175309071615437008150000011160513359526171315_);}
</style>
<g>
	<linearGradient id="SVGID_1_" gradientUnits="userSpaceOnUse" x1="289.572" y1="141.7301" x2="-6.0835" y2="141.7301">
		<stop  offset="0" style="stop-color:#D7F3F4"/>
		<stop  offset="0.0539" style="stop-color:#D3EBF4"/>
		<stop  offset="0.1392" style="stop-color:#C7D4F5"/>
		<stop  offset="0.1669" style="stop-color:#C3CBF5"/>
		<stop  offset="0.2167" style="stop-color:#BBBEF5"/>
		<stop  offset="0.3083" style="stop-color:#A59DF6"/>
		<stop  offset="0.4308" style="stop-color:#8166F7"/>
		<stop  offset="0.4974" style="stop-color:#6C46F7"/>
		<stop  offset="0.8103" style="stop-color:#190078"/>
		<stop  offset="0.9286" style="stop-color:#000051"/>
	</linearGradient>
	<path class="st0" d="M47.5,65.79c0,5.05,0.24,50.14,8.6,76.88c10.78,34.47,31.99,60.37,63.03,76.97l0.16,0.08
		c3.37,1.72,10.48,5.22,16.24,7.21v-19.99c-2.46-1.1-5.17-2.39-7.74-3.69c-14.16-7.59-26-17.45-35.2-29.33
		c-5.28-6.82-9.79-14.45-13.51-22.78h44.19v-18.53H72.53c-4.22-16.63-5.92-40.69-6.37-57.55h69.37V56.53H47.5V65.79z"/>
	
		<linearGradient id="SVGID_00000118383522737828340290000002895174007984224388_" gradientUnits="userSpaceOnUse" x1="289.572" y1="141.7323" x2="-6.0835" y2="141.7323">
		<stop  offset="0" style="stop-color:#D7F3F4"/>
		<stop  offset="0.0539" style="stop-color:#D3EBF4"/>
		<stop  offset="0.1392" style="stop-color:#C7D4F5"/>
		<stop  offset="0.1669" style="stop-color:#C3CBF5"/>
		<stop  offset="0.2167" style="stop-color:#BBBEF5"/>
		<stop  offset="0.3083" style="stop-color:#A59DF6"/>
		<stop  offset="0.4308" style="stop-color:#8166F7"/>
		<stop  offset="0.4974" style="stop-color:#6C46F7"/>
		<stop  offset="0.8103" style="stop-color:#190078"/>
		<stop  offset="0.9286" style="stop-color:#000051"/>
	</linearGradient>
	<path style="fill:url(#SVGID_00000118383522737828340290000002895174007984224388_);" d="M147.89,56.53v18.53h69.4
		c-0.49,18.46-2.46,45.57-7.62,62.08c-4.36,13.94-10.68,26.31-18.8,36.79c-6.76,8.72-14.95,16.34-24.42,22.79v-45.57h18.44v-18.53
		h-36.97v74.34v9.26v10.73c5.77-1.99,12.89-5.5,16.26-7.22l0.16-0.08c31.05-16.61,52.25-42.5,63.03-76.97
		c8.36-26.73,8.6-71.82,8.6-76.88v-9.27H147.89z"/>
</g>
</svg>
